# xmcd
# 
# Track frame offsets:
#     150
#     21812
#     39910
#     54732
# 
# Disc length: 1088
# 
# Revision: 5
# Processed by: cddbd v1.5.2PL0 Copyright (c) Steve Scherf et al.
# Submitted via: fre:ac v1.0.17
# 
DISCID=29043e04
DTITLE=Prince - Diamonds and Pearls [CDS}
DYEAR=1991
DGENRE=Pop
TTITLE0=Diamonds and Pearls
TTITLE1=Things Have Gotta Change (Tony M. Rap)
TTITLE2=2 The Wire (Creamy Instrumental)
TTITLE3=Do Your Dance (KC's Remix)
EXTD=
EXTT0=
EXTT1=
EXTT2=
EXTT3=
PLAYORDER=
